<svg class="svg-icon" style="width: 1em; height: 1em;vertical-align: middle;fill: currentColor;overflow: hidden;" viewBox="0 0 1024 1024" version="1.1" xmlns="http://www.w3.org/2000/svg"><path d="M42.666667 874.666667c-23.466667 0-42.666667-19.2-42.666667-42.666667V192c0-23.466667 19.2-42.666667 42.666667-42.666667h938.666666c23.466667 0 42.666667 19.2 42.666667 42.666667v640c0 23.466667-19.2 42.666667-42.666667 42.666667H42.666667z m42.666666-85.333334h853.333334V234.666667H85.333333v554.666666z" fill="#2F3CF4" /><path d="M445.866667 320c-23.466667-2.133333-44.8 14.933333-46.933334 38.4l-10.666666 110.933333h-128l10.666666-102.4c2.133333-23.466667-14.933333-44.8-38.4-46.933333-23.466667-2.133333-42.666667 14.933333-46.933333 38.4l-32 298.666667c0 23.466667 17.066667 44.8 40.533333 46.933333h4.266667c21.333333 0 40.533333-17.066667 42.666667-38.4l10.666666-110.933333h128l-10.666666 102.4c-2.133333 23.466667 14.933333 44.8 38.4 46.933333h4.266666c21.333333 0 40.533333-17.066667 42.666667-38.4l32-298.666667c0-23.466667-17.066667-44.8-40.533333-46.933333M676.266667 320c51.2 0 98.133333 21.333333 132.266666 57.6 34.133333 38.4 49.066667 87.466667 42.666667 138.666667C840.533333 618.666667 746.666667 704 644.266667 704h-64c-12.8 0-23.466667-4.266667-32-14.933333-8.533333-8.533333-12.8-21.333333-10.666667-32l32-298.666667c2.133333-21.333333 21.333333-38.4 42.666667-38.4h64z m91.733333 187.733333c2.133333-27.733333-4.266667-53.333333-21.333333-72.533333-17.066667-19.2-42.666667-29.866667-70.4-29.866667h-25.6l-23.466667 213.333334h17.066667c61.866667 0 117.333333-49.066667 123.733333-110.933334z" fill="#2F3CF4" /></svg>